<?xml version="1.0" encoding="UTF-8"?>
<svg xmlns="http://www.w3.org/2000/svg" xmlns:xlink="http://www.w3.org/1999/xlink" viewBox="0 0 50 50" width="50px" height="50px">
<g id="surface39761104">
<path style=" stroke:none;fill-rule:nonzero;fill:rgb(0%,0%,0%);fill-opacity:1;" d="M 22.199219 9.601562 C 15.65625 9.601562 10.300781 14.957031 10.300781 21.5 C 10.300781 28.042969 15.65625 33.398438 22.199219 33.398438 C 24.789062 33.398438 27.1875 32.550781 29.148438 31.128906 L 38.359375 40.339844 L 40.339844 38.359375 L 31.210938 29.234375 C 33.003906 27.148438 34.101562 24.445312 34.101562 21.5 C 34.101562 14.957031 28.742188 9.601562 22.199219 9.601562 Z M 22.199219 11 C 27.976562 11 32.699219 15.722656 32.699219 21.5 C 32.699219 27.277344 27.976562 32 22.199219 32 C 16.421875 32 11.699219 27.277344 11.699219 21.5 C 11.699219 15.722656 16.421875 11 22.199219 11 Z M 22.199219 11 "/>
</g>
</svg>
